<svg width="40" height="40" viewBox="0 0 40 40" fill="none" xmlns="http://www.w3.org/2000/svg">
<g clip-path="url(#clip0_16_20)">
<path d="M20.0044 9.7445C14.329 9.7445 9.75119 14.3234 9.75119 20C9.75119 25.6766 14.329 30.2555 20.0044 30.2555C25.6798 30.2555 30.2576 25.6766 30.2576 20C30.2576 14.3234 25.6798 9.7445 20.0044 9.7445ZM20.0044 26.6674C16.3368 26.6674 13.3385 23.6773 13.3385 20C13.3385 16.3227 16.3279 13.3326 20.0044 13.3326C23.6809 13.3326 26.6703 16.3227 26.6703 20C26.6703 23.6773 23.672 26.6674 20.0044 26.6674ZM33.0685 9.325C33.0685 10.6549 31.9977 11.7171 30.677 11.7171C29.3474 11.7171 28.2855 10.646 28.2855 9.325C28.2855 8.00402 29.3563 6.93295 30.677 6.93295C31.9977 6.93295 33.0685 8.00402 33.0685 9.325ZM39.8594 11.7528C39.7077 8.54849 38.976 5.71013 36.6291 3.37164C34.2911 1.03314 31.4534 0.301237 28.2498 0.140577C24.9481 -0.0468591 15.0518 -0.0468591 11.7501 0.140577C8.55544 0.292312 5.71772 1.02422 3.37082 3.36271C1.02393 5.70121 0.301109 8.53956 0.140485 11.7438C-0.0469097 15.0463 -0.0469097 24.9448 0.140485 28.2472C0.292186 31.4515 1.02393 34.2899 3.37082 36.6284C5.71772 38.9669 8.54652 39.6988 11.7501 39.8594C15.0518 40.0469 24.9481 40.0469 28.2498 39.8594C31.4534 39.7077 34.2911 38.9758 36.6291 36.6284C38.967 34.2899 39.6988 31.4515 39.8594 28.2472C40.0468 24.9448 40.0468 15.0552 39.8594 11.7528ZM35.5939 31.7907C34.8979 33.5401 33.5504 34.8879 31.7925 35.593C29.16 36.6373 22.9135 36.3963 20.0044 36.3963C17.0953 36.3963 10.8399 36.6284 8.21633 35.593C6.46732 34.8968 5.11985 33.549 4.41489 31.7907C3.37083 29.1577 3.61176 22.9097 3.61176 20C3.61176 17.0903 3.37975 10.8334 4.41489 8.2093C5.11092 6.4599 6.45839 5.11212 8.21633 4.40701C10.8488 3.36272 17.0953 3.6037 20.0044 3.6037C22.9135 3.6037 29.1689 3.37164 31.7925 4.40701C33.5415 5.1032 34.889 6.45097 35.5939 8.2093C36.638 10.8423 36.397 17.0903 36.397 20C36.397 22.9097 36.638 29.1666 35.5939 31.7907Z" fill="#B14352"/>
</g>
<defs>
<clipPath id="clip0_16_20">
<rect width="40" height="40" fill="white"/>
</clipPath>
</defs>
</svg>
