<svg width="40" height="40" viewBox="0 0 40 40" fill="none" xmlns="http://www.w3.org/2000/svg">
<path d="M34.0089 5.8125C30.2678 2.0625 25.2857 0 19.991 0C9.06244 0 0.169582 8.89286 0.169582 19.8214C0.169582 23.3125 1.0803 26.7232 2.81244 29.7321L-6.10352e-05 40L10.5089 37.2411C13.4017 38.8214 16.6607 39.6518 19.9821 39.6518H19.991C30.9107 39.6518 39.9999 30.7589 39.9999 19.8304C39.9999 14.5357 37.7499 9.5625 34.0089 5.8125ZM19.991 36.3125C17.0267 36.3125 14.1249 35.5179 11.5982 34.0179L10.9999 33.6607L4.7678 35.2946L6.42851 29.2143L6.03565 28.5893C4.38387 25.9643 3.5178 22.9375 3.5178 19.8214C3.5178 10.7411 10.9107 3.34821 19.9999 3.34821C24.4017 3.34821 28.5357 5.0625 31.6428 8.17857C34.7499 11.2946 36.6607 15.4286 36.6517 19.8304C36.6517 28.9196 29.0714 36.3125 19.991 36.3125ZM29.0267 23.9732C28.5357 23.7232 26.0982 22.5268 25.6428 22.3661C25.1874 22.1964 24.8571 22.1161 24.5267 22.6161C24.1964 23.1161 23.2499 24.2232 22.9553 24.5625C22.6696 24.8929 22.3749 24.9375 21.8839 24.6875C18.9732 23.2321 17.0624 22.0893 15.1428 18.7946C14.6339 17.9196 15.6517 17.9821 16.5982 16.0893C16.7589 15.7589 16.6785 15.4732 16.5535 15.2232C16.4285 14.9732 15.4374 12.5357 15.0267 11.5446C14.6249 10.5804 14.2142 10.7143 13.9107 10.6964C13.6249 10.6786 13.2946 10.6786 12.9642 10.6786C12.6339 10.6786 12.0982 10.8036 11.6428 11.2946C11.1874 11.7946 9.91065 12.9911 9.91065 15.4286C9.91065 17.8661 11.6874 20.2232 11.9285 20.5536C12.1785 20.8839 15.4196 25.8839 20.3928 28.0357C23.5357 29.3929 24.7678 29.5089 26.3392 29.2768C27.2946 29.1339 29.2678 28.0804 29.6785 26.9196C30.0892 25.7589 30.0892 24.7679 29.9642 24.5625C29.8482 24.3393 29.5178 24.2143 29.0267 23.9732Z" fill="#B14352"/>
</svg>
